<mxfile host="app.diagrams.net" modified="2022-06-26T08:14:30.412Z" agent="5.0 (Windows)" etag="E7ZNeWwbFFw2sec0FITE" version="20.0.3" type="github" pages="2">
  <diagram id="C5RBs43oDa-KdzZeNtuy" name="Login n Register">
    <mxGraphModel dx="1240" dy="669" grid="1" gridSize="10" guides="1" tooltips="1" connect="1" arrows="1" fold="1" page="1" pageScale="1" pageWidth="827" pageHeight="1169" background="#F1FAEE" math="0" shadow="0">
      <root>
        <mxCell id="WIyWlLk6GJQsqaUBKTNV-0" />
        <mxCell id="WIyWlLk6GJQsqaUBKTNV-1" parent="WIyWlLk6GJQsqaUBKTNV-0" />
        <mxCell id="i2bwiixPykGcTfArbeVZ-3" value="" style="edgeStyle=orthogonalEdgeStyle;orthogonalLoop=1;jettySize=auto;html=1;fontColor=#1D3557;strokeColor=#457B9D;fillColor=#A8DADC;" parent="WIyWlLk6GJQsqaUBKTNV-1" source="i2bwiixPykGcTfArbeVZ-1" target="i2bwiixPykGcTfArbeVZ-2" edge="1">
          <mxGeometry relative="1" as="geometry" />
        </mxCell>
        <mxCell id="i2bwiixPykGcTfArbeVZ-1" value="sign in" style="ellipse;whiteSpace=wrap;html=1;fontColor=#1D3557;strokeColor=#457B9D;fillColor=#A8DADC;" parent="WIyWlLk6GJQsqaUBKTNV-1" vertex="1">
          <mxGeometry x="120" y="160" width="100" height="40" as="geometry" />
        </mxCell>
        <mxCell id="i2bwiixPykGcTfArbeVZ-26" value="" style="edgeStyle=orthogonalEdgeStyle;orthogonalLoop=1;jettySize=auto;html=1;fontColor=#1D3557;strokeColor=#457B9D;fillColor=#A8DADC;" parent="WIyWlLk6GJQsqaUBKTNV-1" source="i2bwiixPykGcTfArbeVZ-2" target="i2bwiixPykGcTfArbeVZ-25" edge="1">
          <mxGeometry relative="1" as="geometry" />
        </mxCell>
        <mxCell id="i2bwiixPykGcTfArbeVZ-2" value="sign in with account &amp;amp; password" style="whiteSpace=wrap;html=1;fillColor=#A8DADC;strokeColor=#457B9D;fontColor=#1D3557;" parent="WIyWlLk6GJQsqaUBKTNV-1" vertex="1">
          <mxGeometry x="110" y="232" width="120" height="60" as="geometry" />
        </mxCell>
        <mxCell id="i2bwiixPykGcTfArbeVZ-19" value="" style="edgeStyle=orthogonalEdgeStyle;orthogonalLoop=1;jettySize=auto;html=1;fontColor=#1D3557;strokeColor=#457B9D;fillColor=#A8DADC;" parent="WIyWlLk6GJQsqaUBKTNV-1" source="i2bwiixPykGcTfArbeVZ-21" target="i2bwiixPykGcTfArbeVZ-22" edge="1">
          <mxGeometry relative="1" as="geometry" />
        </mxCell>
        <mxCell id="i2bwiixPykGcTfArbeVZ-20" value="" style="edgeStyle=orthogonalEdgeStyle;orthogonalLoop=1;jettySize=auto;html=1;fontColor=#1D3557;strokeColor=#457B9D;fillColor=#A8DADC;entryX=1;entryY=0.5;entryDx=0;entryDy=0;" parent="WIyWlLk6GJQsqaUBKTNV-1" source="i2bwiixPykGcTfArbeVZ-21" target="i2bwiixPykGcTfArbeVZ-2" edge="1">
          <mxGeometry relative="1" as="geometry">
            <mxPoint x="230" y="336" as="targetPoint" />
            <Array as="points">
              <mxPoint x="310" y="452" />
              <mxPoint x="310" y="262" />
            </Array>
          </mxGeometry>
        </mxCell>
        <mxCell id="i2bwiixPykGcTfArbeVZ-21" value="&lt;div&gt;is &lt;br&gt;&lt;/div&gt;&lt;div&gt;information correct?&lt;/div&gt;" style="rhombus;whiteSpace=wrap;html=1;fillColor=#f8cecc;strokeColor=#b85450;" parent="WIyWlLk6GJQsqaUBKTNV-1" vertex="1">
          <mxGeometry x="123" y="405" width="94" height="94" as="geometry" />
        </mxCell>
        <mxCell id="i2bwiixPykGcTfArbeVZ-29" value="" style="edgeStyle=orthogonalEdgeStyle;orthogonalLoop=1;jettySize=auto;html=1;fontColor=#1D3557;strokeColor=#457B9D;fillColor=#A8DADC;" parent="WIyWlLk6GJQsqaUBKTNV-1" source="i2bwiixPykGcTfArbeVZ-22" target="i2bwiixPykGcTfArbeVZ-28" edge="1">
          <mxGeometry relative="1" as="geometry" />
        </mxCell>
        <mxCell id="i2bwiixPykGcTfArbeVZ-22" value="Succesfully Sign In" style="whiteSpace=wrap;html=1;fillColor=#A8DADC;strokeColor=#457B9D;fontColor=#1D3557;" parent="WIyWlLk6GJQsqaUBKTNV-1" vertex="1">
          <mxGeometry x="110" y="562" width="120" height="60" as="geometry" />
        </mxCell>
        <mxCell id="i2bwiixPykGcTfArbeVZ-23" value="yes" style="text;html=1;align=center;verticalAlign=middle;resizable=0;points=[];autosize=1;strokeColor=#6c8ebf;fillColor=#dae8fc;" parent="WIyWlLk6GJQsqaUBKTNV-1" vertex="1">
          <mxGeometry x="150" y="511" width="40" height="30" as="geometry" />
        </mxCell>
        <mxCell id="i2bwiixPykGcTfArbeVZ-24" value="no" style="text;html=1;align=center;verticalAlign=middle;resizable=0;points=[];autosize=1;strokeColor=#6c8ebf;fillColor=#dae8fc;" parent="WIyWlLk6GJQsqaUBKTNV-1" vertex="1">
          <mxGeometry x="290" y="338" width="40" height="30" as="geometry" />
        </mxCell>
        <mxCell id="i2bwiixPykGcTfArbeVZ-27" style="edgeStyle=orthogonalEdgeStyle;orthogonalLoop=1;jettySize=auto;html=1;exitX=0.5;exitY=1;exitDx=0;exitDy=0;entryX=0.5;entryY=0;entryDx=0;entryDy=0;fontColor=#1D3557;strokeColor=#457B9D;fillColor=#A8DADC;" parent="WIyWlLk6GJQsqaUBKTNV-1" source="i2bwiixPykGcTfArbeVZ-25" target="i2bwiixPykGcTfArbeVZ-21" edge="1">
          <mxGeometry relative="1" as="geometry" />
        </mxCell>
        <mxCell id="i2bwiixPykGcTfArbeVZ-25" value="input email &amp;amp; password" style="whiteSpace=wrap;html=1;fillColor=#A8DADC;strokeColor=#457B9D;fontColor=#1D3557;" parent="WIyWlLk6GJQsqaUBKTNV-1" vertex="1">
          <mxGeometry x="110" y="323" width="120" height="60" as="geometry" />
        </mxCell>
        <mxCell id="i2bwiixPykGcTfArbeVZ-28" value="Homepage" style="ellipse;whiteSpace=wrap;html=1;fillColor=#A8DADC;strokeColor=#457B9D;fontColor=#1D3557;" parent="WIyWlLk6GJQsqaUBKTNV-1" vertex="1">
          <mxGeometry x="110" y="660" width="120" height="44" as="geometry" />
        </mxCell>
        <mxCell id="i2bwiixPykGcTfArbeVZ-30" value="" style="edgeStyle=orthogonalEdgeStyle;orthogonalLoop=1;jettySize=auto;html=1;fontColor=#1D3557;strokeColor=#457B9D;fillColor=#A8DADC;" parent="WIyWlLk6GJQsqaUBKTNV-1" source="i2bwiixPykGcTfArbeVZ-31" target="i2bwiixPykGcTfArbeVZ-33" edge="1">
          <mxGeometry relative="1" as="geometry" />
        </mxCell>
        <mxCell id="i2bwiixPykGcTfArbeVZ-31" value="sign up" style="ellipse;whiteSpace=wrap;html=1;fontColor=#1D3557;strokeColor=#457B9D;fillColor=#A8DADC;" parent="WIyWlLk6GJQsqaUBKTNV-1" vertex="1">
          <mxGeometry x="520" y="160" width="100" height="40" as="geometry" />
        </mxCell>
        <mxCell id="i2bwiixPykGcTfArbeVZ-32" value="" style="edgeStyle=orthogonalEdgeStyle;orthogonalLoop=1;jettySize=auto;html=1;fontColor=#1D3557;strokeColor=#457B9D;fillColor=#A8DADC;" parent="WIyWlLk6GJQsqaUBKTNV-1" source="i2bwiixPykGcTfArbeVZ-33" target="i2bwiixPykGcTfArbeVZ-42" edge="1">
          <mxGeometry relative="1" as="geometry" />
        </mxCell>
        <mxCell id="i2bwiixPykGcTfArbeVZ-33" value="sign up with username, email &amp;amp; password" style="whiteSpace=wrap;html=1;fillColor=#A8DADC;strokeColor=#457B9D;fontColor=#1D3557;" parent="WIyWlLk6GJQsqaUBKTNV-1" vertex="1">
          <mxGeometry x="510" y="232" width="120" height="60" as="geometry" />
        </mxCell>
        <mxCell id="i2bwiixPykGcTfArbeVZ-34" value="" style="edgeStyle=orthogonalEdgeStyle;orthogonalLoop=1;jettySize=auto;html=1;fontColor=#1D3557;strokeColor=#457B9D;fillColor=#A8DADC;" parent="WIyWlLk6GJQsqaUBKTNV-1" source="i2bwiixPykGcTfArbeVZ-36" target="i2bwiixPykGcTfArbeVZ-38" edge="1">
          <mxGeometry relative="1" as="geometry" />
        </mxCell>
        <mxCell id="i2bwiixPykGcTfArbeVZ-35" value="" style="edgeStyle=orthogonalEdgeStyle;orthogonalLoop=1;jettySize=auto;html=1;fontColor=#1D3557;strokeColor=#457B9D;fillColor=#A8DADC;entryX=1;entryY=0.5;entryDx=0;entryDy=0;" parent="WIyWlLk6GJQsqaUBKTNV-1" source="i2bwiixPykGcTfArbeVZ-36" target="i2bwiixPykGcTfArbeVZ-33" edge="1">
          <mxGeometry relative="1" as="geometry">
            <mxPoint x="630" y="336" as="targetPoint" />
            <Array as="points">
              <mxPoint x="710" y="452" />
              <mxPoint x="710" y="262" />
            </Array>
          </mxGeometry>
        </mxCell>
        <mxCell id="i2bwiixPykGcTfArbeVZ-36" value="Data is &lt;br&gt;&lt;div&gt;relevant&lt;/div&gt;" style="rhombus;whiteSpace=wrap;html=1;fillColor=#f8cecc;strokeColor=#b85450;" parent="WIyWlLk6GJQsqaUBKTNV-1" vertex="1">
          <mxGeometry x="523" y="405" width="94" height="94" as="geometry" />
        </mxCell>
        <mxCell id="i2bwiixPykGcTfArbeVZ-37" value="" style="edgeStyle=orthogonalEdgeStyle;orthogonalLoop=1;jettySize=auto;html=1;fontColor=#1D3557;strokeColor=#457B9D;fillColor=#A8DADC;" parent="WIyWlLk6GJQsqaUBKTNV-1" source="i2bwiixPykGcTfArbeVZ-38" target="i2bwiixPykGcTfArbeVZ-43" edge="1">
          <mxGeometry relative="1" as="geometry" />
        </mxCell>
        <mxCell id="i2bwiixPykGcTfArbeVZ-38" value="Succesfully Sign Up" style="whiteSpace=wrap;html=1;fillColor=#A8DADC;strokeColor=#457B9D;fontColor=#1D3557;" parent="WIyWlLk6GJQsqaUBKTNV-1" vertex="1">
          <mxGeometry x="510" y="562" width="120" height="60" as="geometry" />
        </mxCell>
        <mxCell id="i2bwiixPykGcTfArbeVZ-39" value="yes" style="text;html=1;align=center;verticalAlign=middle;resizable=0;points=[];autosize=1;strokeColor=#6c8ebf;fillColor=#dae8fc;" parent="WIyWlLk6GJQsqaUBKTNV-1" vertex="1">
          <mxGeometry x="550" y="511" width="40" height="30" as="geometry" />
        </mxCell>
        <mxCell id="i2bwiixPykGcTfArbeVZ-40" value="no" style="text;html=1;align=center;verticalAlign=middle;resizable=0;points=[];autosize=1;strokeColor=#6c8ebf;fillColor=#dae8fc;" parent="WIyWlLk6GJQsqaUBKTNV-1" vertex="1">
          <mxGeometry x="690" y="338" width="40" height="30" as="geometry" />
        </mxCell>
        <mxCell id="i2bwiixPykGcTfArbeVZ-41" style="edgeStyle=orthogonalEdgeStyle;orthogonalLoop=1;jettySize=auto;html=1;exitX=0.5;exitY=1;exitDx=0;exitDy=0;entryX=0.5;entryY=0;entryDx=0;entryDy=0;fontColor=#1D3557;strokeColor=#457B9D;fillColor=#A8DADC;" parent="WIyWlLk6GJQsqaUBKTNV-1" source="i2bwiixPykGcTfArbeVZ-42" target="i2bwiixPykGcTfArbeVZ-36" edge="1">
          <mxGeometry relative="1" as="geometry" />
        </mxCell>
        <mxCell id="i2bwiixPykGcTfArbeVZ-42" value="input username, email &amp;amp; password" style="whiteSpace=wrap;html=1;fillColor=#A8DADC;strokeColor=#457B9D;fontColor=#1D3557;" parent="WIyWlLk6GJQsqaUBKTNV-1" vertex="1">
          <mxGeometry x="510" y="323" width="120" height="60" as="geometry" />
        </mxCell>
        <mxCell id="i2bwiixPykGcTfArbeVZ-43" value="Login Page" style="ellipse;whiteSpace=wrap;html=1;fillColor=#A8DADC;strokeColor=#457B9D;fontColor=#1D3557;" parent="WIyWlLk6GJQsqaUBKTNV-1" vertex="1">
          <mxGeometry x="510" y="660" width="120" height="44" as="geometry" />
        </mxCell>
      </root>
    </mxGraphModel>
  </diagram>
  <diagram name="Reservasi " id="vz0T9nCNhjycjxduR5gY">
    <mxGraphModel dx="1021" dy="551" grid="1" gridSize="10" guides="1" tooltips="1" connect="1" arrows="1" fold="1" page="1" pageScale="1" pageWidth="827" pageHeight="1169" background="#F1FAEE" math="0" shadow="0">
      <root>
        <mxCell id="h-db7XHEf4iSBWwC68O2-0" />
        <mxCell id="h-db7XHEf4iSBWwC68O2-1" parent="h-db7XHEf4iSBWwC68O2-0" />
        <mxCell id="h-db7XHEf4iSBWwC68O2-2" value="" style="edgeStyle=orthogonalEdgeStyle;orthogonalLoop=1;jettySize=auto;html=1;fontColor=#1D3557;strokeColor=#457B9D;fillColor=#A8DADC;" edge="1" parent="h-db7XHEf4iSBWwC68O2-1" source="h-db7XHEf4iSBWwC68O2-3" target="h-db7XHEf4iSBWwC68O2-5">
          <mxGeometry relative="1" as="geometry" />
        </mxCell>
        <mxCell id="h-db7XHEf4iSBWwC68O2-3" value="start" style="ellipse;whiteSpace=wrap;html=1;fontColor=#1D3557;strokeColor=#457B9D;fillColor=#A8DADC;" vertex="1" parent="h-db7XHEf4iSBWwC68O2-1">
          <mxGeometry x="60" y="140" width="100" height="40" as="geometry" />
        </mxCell>
        <mxCell id="h-db7XHEf4iSBWwC68O2-4" value="" style="edgeStyle=orthogonalEdgeStyle;orthogonalLoop=1;jettySize=auto;html=1;fontColor=#1D3557;strokeColor=#457B9D;fillColor=#A8DADC;" edge="1" parent="h-db7XHEf4iSBWwC68O2-1" source="h-db7XHEf4iSBWwC68O2-5" target="h-db7XHEf4iSBWwC68O2-14">
          <mxGeometry relative="1" as="geometry" />
        </mxCell>
        <mxCell id="h-db7XHEf4iSBWwC68O2-5" value="select destination travel" style="whiteSpace=wrap;html=1;fillColor=#A8DADC;strokeColor=#457B9D;fontColor=#1D3557;" vertex="1" parent="h-db7XHEf4iSBWwC68O2-1">
          <mxGeometry x="50" y="222" width="120" height="60" as="geometry" />
        </mxCell>
        <mxCell id="h-db7XHEf4iSBWwC68O2-6" value="" style="edgeStyle=orthogonalEdgeStyle;orthogonalLoop=1;jettySize=auto;html=1;fontColor=#1D3557;strokeColor=#457B9D;fillColor=#A8DADC;" edge="1" parent="h-db7XHEf4iSBWwC68O2-1" source="h-db7XHEf4iSBWwC68O2-8" target="h-db7XHEf4iSBWwC68O2-10">
          <mxGeometry relative="1" as="geometry" />
        </mxCell>
        <mxCell id="h-db7XHEf4iSBWwC68O2-7" value="" style="edgeStyle=orthogonalEdgeStyle;orthogonalLoop=1;jettySize=auto;html=1;fontColor=#1D3557;strokeColor=#457B9D;fillColor=#A8DADC;entryX=1;entryY=0.5;entryDx=0;entryDy=0;rounded=0;" edge="1" parent="h-db7XHEf4iSBWwC68O2-1" source="h-db7XHEf4iSBWwC68O2-8" target="h-db7XHEf4iSBWwC68O2-5">
          <mxGeometry relative="1" as="geometry">
            <mxPoint x="170" y="326" as="targetPoint" />
            <Array as="points">
              <mxPoint x="280" y="442" />
              <mxPoint x="280" y="252" />
            </Array>
          </mxGeometry>
        </mxCell>
        <mxCell id="h-db7XHEf4iSBWwC68O2-8" value="&lt;div&gt;is &lt;br&gt;&lt;/div&gt;&lt;div&gt;destiantion found&lt;/div&gt;" style="rhombus;whiteSpace=wrap;html=1;fillColor=#f8cecc;strokeColor=#b85450;" vertex="1" parent="h-db7XHEf4iSBWwC68O2-1">
          <mxGeometry x="63" y="395" width="94" height="94" as="geometry" />
        </mxCell>
        <mxCell id="OSEHjt07LE6Lc6ZWST4G-1" value="" style="edgeStyle=orthogonalEdgeStyle;rounded=0;orthogonalLoop=1;jettySize=auto;html=1;strokeColor=#457B9D;" edge="1" parent="h-db7XHEf4iSBWwC68O2-1" source="h-db7XHEf4iSBWwC68O2-10" target="OSEHjt07LE6Lc6ZWST4G-0">
          <mxGeometry relative="1" as="geometry" />
        </mxCell>
        <mxCell id="h-db7XHEf4iSBWwC68O2-10" value="Confirmation Admin" style="whiteSpace=wrap;html=1;fillColor=#A8DADC;strokeColor=#457B9D;fontColor=#1D3557;" vertex="1" parent="h-db7XHEf4iSBWwC68O2-1">
          <mxGeometry x="50" y="552" width="120" height="60" as="geometry" />
        </mxCell>
        <mxCell id="h-db7XHEf4iSBWwC68O2-11" value="yes" style="text;html=1;align=center;verticalAlign=middle;resizable=0;points=[];autosize=1;strokeColor=#6c8ebf;fillColor=#dae8fc;" vertex="1" parent="h-db7XHEf4iSBWwC68O2-1">
          <mxGeometry x="90" y="501" width="40" height="30" as="geometry" />
        </mxCell>
        <mxCell id="h-db7XHEf4iSBWwC68O2-13" style="edgeStyle=orthogonalEdgeStyle;orthogonalLoop=1;jettySize=auto;html=1;exitX=0.5;exitY=1;exitDx=0;exitDy=0;entryX=0.5;entryY=0;entryDx=0;entryDy=0;fontColor=#1D3557;strokeColor=#457B9D;fillColor=#A8DADC;" edge="1" parent="h-db7XHEf4iSBWwC68O2-1" source="h-db7XHEf4iSBWwC68O2-14" target="h-db7XHEf4iSBWwC68O2-8">
          <mxGeometry relative="1" as="geometry" />
        </mxCell>
        <mxCell id="h-db7XHEf4iSBWwC68O2-14" value="input destination, date" style="whiteSpace=wrap;html=1;fillColor=#A8DADC;strokeColor=#457B9D;fontColor=#1D3557;" vertex="1" parent="h-db7XHEf4iSBWwC68O2-1">
          <mxGeometry x="50" y="313" width="120" height="60" as="geometry" />
        </mxCell>
        <mxCell id="OSEHjt07LE6Lc6ZWST4G-8" value="" style="edgeStyle=orthogonalEdgeStyle;rounded=0;orthogonalLoop=1;jettySize=auto;html=1;strokeColor=#457B9D;entryX=1;entryY=0.5;entryDx=0;entryDy=0;exitX=0.5;exitY=0;exitDx=0;exitDy=0;" edge="1" parent="h-db7XHEf4iSBWwC68O2-1" source="OSEHjt07LE6Lc6ZWST4G-0" target="h-db7XHEf4iSBWwC68O2-5">
          <mxGeometry relative="1" as="geometry">
            <mxPoint x="380" y="582" as="targetPoint" />
            <Array as="points">
              <mxPoint x="279" y="252" />
            </Array>
          </mxGeometry>
        </mxCell>
        <mxCell id="OSEHjt07LE6Lc6ZWST4G-14" value="" style="edgeStyle=orthogonalEdgeStyle;rounded=0;orthogonalLoop=1;jettySize=auto;html=1;strokeColor=#457B9D;" edge="1" parent="h-db7XHEf4iSBWwC68O2-1" source="OSEHjt07LE6Lc6ZWST4G-0" target="OSEHjt07LE6Lc6ZWST4G-13">
          <mxGeometry relative="1" as="geometry" />
        </mxCell>
        <mxCell id="OSEHjt07LE6Lc6ZWST4G-0" value="Confirmed" style="rhombus;whiteSpace=wrap;html=1;fillColor=#F8CECC;strokeColor=#457B9D;fontColor=#00000;" vertex="1" parent="h-db7XHEf4iSBWwC68O2-1">
          <mxGeometry x="239" y="542" width="80" height="80" as="geometry" />
        </mxCell>
        <mxCell id="OSEHjt07LE6Lc6ZWST4G-10" value="yes" style="text;html=1;align=center;verticalAlign=middle;resizable=0;points=[];autosize=1;strokeColor=#6c8ebf;fillColor=#dae8fc;" vertex="1" parent="h-db7XHEf4iSBWwC68O2-1">
          <mxGeometry x="354" y="567" width="40" height="30" as="geometry" />
        </mxCell>
        <mxCell id="OSEHjt07LE6Lc6ZWST4G-16" value="" style="edgeStyle=orthogonalEdgeStyle;rounded=0;orthogonalLoop=1;jettySize=auto;html=1;strokeColor=#457B9D;" edge="1" parent="h-db7XHEf4iSBWwC68O2-1" source="OSEHjt07LE6Lc6ZWST4G-13" target="OSEHjt07LE6Lc6ZWST4G-15">
          <mxGeometry relative="1" as="geometry" />
        </mxCell>
        <mxCell id="OSEHjt07LE6Lc6ZWST4G-13" value="Payment" style="whiteSpace=wrap;html=1;fillColor=#A8DADC;strokeColor=#457B9D;fontColor=#1D3557;" vertex="1" parent="h-db7XHEf4iSBWwC68O2-1">
          <mxGeometry x="440" y="552" width="120" height="60" as="geometry" />
        </mxCell>
        <mxCell id="OSEHjt07LE6Lc6ZWST4G-18" value="" style="edgeStyle=orthogonalEdgeStyle;rounded=0;orthogonalLoop=1;jettySize=auto;html=1;strokeColor=#457B9D;" edge="1" parent="h-db7XHEf4iSBWwC68O2-1" source="OSEHjt07LE6Lc6ZWST4G-15" target="OSEHjt07LE6Lc6ZWST4G-17">
          <mxGeometry relative="1" as="geometry" />
        </mxCell>
        <mxCell id="OSEHjt07LE6Lc6ZWST4G-15" value="Upload Payment Receipt" style="whiteSpace=wrap;html=1;fillColor=#A8DADC;strokeColor=#457B9D;fontColor=#1D3557;" vertex="1" parent="h-db7XHEf4iSBWwC68O2-1">
          <mxGeometry x="610" y="552" width="120" height="60" as="geometry" />
        </mxCell>
        <mxCell id="OSEHjt07LE6Lc6ZWST4G-20" value="" style="edgeStyle=orthogonalEdgeStyle;rounded=0;orthogonalLoop=1;jettySize=auto;html=1;strokeColor=#457B9D;" edge="1" parent="h-db7XHEf4iSBWwC68O2-1" source="OSEHjt07LE6Lc6ZWST4G-17" target="OSEHjt07LE6Lc6ZWST4G-19">
          <mxGeometry relative="1" as="geometry" />
        </mxCell>
        <mxCell id="OSEHjt07LE6Lc6ZWST4G-17" value="Download Ticket Booking" style="whiteSpace=wrap;html=1;fillColor=#A8DADC;strokeColor=#457B9D;fontColor=#1D3557;" vertex="1" parent="h-db7XHEf4iSBWwC68O2-1">
          <mxGeometry x="610" y="664" width="120" height="60" as="geometry" />
        </mxCell>
        <mxCell id="OSEHjt07LE6Lc6ZWST4G-19" value="Finish" style="ellipse;whiteSpace=wrap;html=1;fillColor=#A8DADC;strokeColor=#457B9D;fontColor=#1D3557;" vertex="1" parent="h-db7XHEf4iSBWwC68O2-1">
          <mxGeometry x="610" y="770" width="120" height="50" as="geometry" />
        </mxCell>
        <mxCell id="h-db7XHEf4iSBWwC68O2-12" value="no" style="text;html=1;align=center;verticalAlign=middle;resizable=0;points=[];autosize=1;strokeColor=#6c8ebf;fillColor=#dae8fc;" vertex="1" parent="h-db7XHEf4iSBWwC68O2-1">
          <mxGeometry x="259" y="328" width="40" height="30" as="geometry" />
        </mxCell>
        <mxCell id="OSEHjt07LE6Lc6ZWST4G-22" value="no" style="text;html=1;align=center;verticalAlign=middle;resizable=0;points=[];autosize=1;strokeColor=#6c8ebf;fillColor=#dae8fc;" vertex="1" parent="h-db7XHEf4iSBWwC68O2-1">
          <mxGeometry x="259" y="471" width="40" height="30" as="geometry" />
        </mxCell>
      </root>
    </mxGraphModel>
  </diagram>
</mxfile>
